# xmcd CD database file
#
# Track frame offsets:
#	150
#	49417
#	70245
#	86291
#	109554
#	125398
#	147432
#	198363
#	225419
#	248085
#
# Disc length: 3655 seconds
#
# Revision: 0
# Processed by: cddbd v1.5.2PL0 Copyright (c) Steve Scherf et al.
# Submitted via: CDex 1.70beta2
#
DISCID=820e450a
DTITLE=B.B. King - Anthology [CD5]
DYEAR=2007
DGENRE=Blues
TTITLE0=B.B.'s Intro And Theme (Live)
TTITLE1=Why I Sing The Blues (Live)
TTITLE2=Outside Help (Live)
TTITLE3=Darlin' You Know I Love You (Live)
TTITLE4=Caledonia (Live)
TTITLE5=Everyday (I Have The Blues) (Live)
TTITLE6=The Letter (Live)
TTITLE7=Sweet Little Angel (Live)
TTITLE8=The Thrill Is Gone (Live)
TTITLE9=Guess Who (Live)
EXTD=YEAR: 2007
EXTT0=
EXTT1=
EXTT2=
EXTT3=
EXTT4=
EXTT5=
EXTT6=
EXTT7=
EXTT8=
EXTT9=
PLAYORDER=
